PathFileType	4	(X/Y/Z)	RBDS013\RBDS013runT45.trc
DataRate	CameraRate	NumFrames	NumMarkers	Units	OrigDataRate	OrigDataStartFrame	OrigNumFrames
150.000000	150.000000	4	33	mm	150.000000	2250	4500
Frame#	Time	L.ASIS			L.Heel.Bottom			L.Heel.Lateral			L.Heel.Top			L.Iliac.Crest			L.MT1			L.MT5			L.PSIS			L.Shank.Bottom.Lateral			L.Shank.Bottom.Medial			L.Shank.Top.Lateral			L.Shank.Top.Medial			L.Thigh.Bottom.Lateral			L.Thigh.Bottom.Medial			L.Thigh.Top.Lateral			L.Thigh.Top.Medial			R.ASIS			R.ASY			R.Heel.Bottom			R.Heel.Lateral			R.Heel.Top			R.Iliac.Crest			R.MT1			R.MT5			R.PSIS			R.Shank.Bottom.Lateral			R.Shank.Bottom.Medial			R.Shank.Top.Lateral			R.Shank.Top.Medial			R.Thigh.Bottom.Lateral			R.Thigh.Bottom.Medial			R.Thigh.Top.Lateral			R.Thigh.Top.Medial			
		X1	Y1	Z1	X2	Y2	Z2	X3	Y3	Z3	X4	Y4	Z4	X5	Y5	Z5	X6	Y6	Z6	X7	Y7	Z7	X8	Y8	Z8	X9	Y9	Z9	X10	Y10	Z10	X11	Y11	Z11	X12	Y12	Z12	X13	Y13	Z13	X14	Y14	Z14	X15	Y15	Z15	X16	Y16	Z16	X17	Y17	Z17	X18	Y18	Z18	X19	Y19	Z19	X20	Y20	Z20	X21	Y21	Z21	X22	Y22	Z22	X23	Y23	Z23	X24	Y24	Z24	X25	Y25	Z25	X26	Y26	Z26	X27	Y27	Z27	X28	Y28	Z28	X29	Y29	Z29	X30	Y30	Z30	X31	Y31	Z31	X32	Y32	Z32	X33	Y33	Z33	

2251	15	2340.915773944109	917.1209839717941	904.9584170470463	2111.299151314804	358.9707624107282	963.6772344418742	2144.182479922702	358.0043009874014	921.8176064364751	2153.263949353339	381.5471043021853	964.811914586682	2285.837496954976	994.5253606230792	864.0301024299707	2256.958262525664	205.3395747739937	986.6991983877084	2228.233832780808	227.1006147243513	881.5779730399279	2180.390831820202	972.0942026699312	959.401896232366	2259.808776664561	392.0487069922913	906.7012934111311	2232.018154826445	425.3635719044013	941.513247844449	2314.79070703759	450.4991449895695	896.7104586846439	2288.927397825934	483.1018042992733	930.6563998022339	2486.109791637882	671.1998591845058	865.7125687402978	2433.829452102222	622.8342397219654	881.4475805468247	2407.635500267962	744.8178181151306	842.3715906692117	2358.65773649018	699.7082043439802	855.355541778079	2332.404775456026	898.8665627489578	1134.132422117689	1904.533424732705	99.38262638916373	1040.903916106714	1749.394040076236	206.9589645192482	1011.31927059202	1772.945957792205	196.8649414845647	1055.19202875526	1792.115417388295	232.058417883621	1021.709641793291	2300.841602321579	971.1073131112599	1159.022980557681	1895.047594176154	67.34560801703766	985.9472749413786	1854.405708016772	68.69198067007609	1088.103286431711	2178.998300443945	970.8098580641257	1059.393278729318	1864.45792639511	256.7404541441721	1084.073737663899	1843.366936325449	279.8619427512467	1043.402417832878	1904.010714756243	329.8370566206806	1102.222611254823	1879.044488250102	350.7491774417384	1059.431788124138	2127.929632467078	620.0137876709401	1154.603721161613	2079.53572757943	641.1763344030254	1103.701901631611	2157.516929114803	724.7487330434569	1165.546396526265	2113.116940072266	745.0728673357377	1116.19002506843	
2252	15.00666666666667	2343.039527948635	921.6528130374305	905.0196113274342	2135.209048535704	328.4259896968933	966.1377681752664	2167.689291329013	330.541579471375	923.98569206817	2174.851486495619	354.8821681921642	966.9412346603953	2288.848544348639	1000.645258248851	864.2879901507264	2294.710370901465	189.2090511357343	987.7002271456167	2263.364031038487	208.1691262961653	883.0643204585734	2182.828257034993	977.2772101106707	960.2826904210815	2279.329171896686	375.8617582592481	908.3935425539436	2249.387911182826	406.0363799050335	944.3037701057838	2328.768419886024	439.2207265547506	898.7916617626822	2300.874842777493	468.787939856414	933.8805847600162	2490.036408344312	678.320974115769	868.3916663790055	2438.094270065779	629.1321987690483	882.7575901242888	2410.979171461466	751.1097911669286	844.2703460634254	2362.321326666584	705.2382212590678	856.2257252796255	2336.517784356299	902.0134376512561	1132.25267161428	1884.26859684201	109.7938206750374	1045.159073320723	1735.15823186905	226.3271332313499	1013.875573949441	1757.802900792596	214.7769889405922	1057.919418173118	1779.240582043968	249.1092832639984	1024.931503784514	2310.435899278435	974.9693614566758	1157.790401288053	1874.133613259545	77.15406660080427	990.1151541873733	1832.011957317914	80.4863401975929	1091.275391695695	2182.664723108423	975.7971221668566	1061.12115251085	1849.57576297121	270.9574814216489	1087.035298908512	1829.221183852603	293.5979330604821	1045.659753030909	1890.01018986621	343.8812147597994	1104.202430561668	1865.725256238663	364.3473067480051	1060.757084662668	2121.431689764742	629.8497071448759	1154.398864135995	2074.56768709214	653.0456296050158	1102.800927856352	2155.424200344116	733.3501179220206	1165.439836450086	2112.619102316531	755.4336077223687	1115.29114745886	
2253	15.01333333333333	2344.83853000815	925.5424212939151	905.003537663398	2161.264610249433	298.6014969946282	968.7925252627875	2193.005274314074	303.6291398588119	926.3127960031679	2198.233017021606	328.6608474843936	969.1917739778415	2291.289627895753	1006.000052463514	864.4180726927284	2333.129393512393	175.0203492352262	988.9182984939629	2299.267953100081	190.683309504212	884.7526289099958	2185.12035112501	982.0838758414766	961.1013157883216	2299.436144883068	359.8215673394985	910.0827892965085	2267.936653204481	386.7219230646115	947.2769619922346	2342.981603287754	427.4741549976968	900.7536013140093	2313.615897300687	453.8732172849275	937.1689735671987	2492.890068715777	683.6013990519915	870.7544494460006	2441.082865158076	633.8382803541213	883.8327639596744	2413.580549722593	755.9716365955519	846.0722475488033	2365.018237218634	709.5706579590345	857.0718925680981	2340.138541858063	904.9295746611685	1130.487783989359	1864.026229261537	122.1702959804388	1049.39432785529	1721.056968046255	246.301317841075	1015.708034490978	1742.612311518548	233.7086617905424	1060.017749536256	1766.211050763008	266.9599691916276	1027.43118734338	2318.985216486544	978.4490672865721	1156.529793188061	1853.58318913249	88.7726224837815	994.4707871325605	1809.83815085125	94.50910858012698	1094.462599264	2185.998925560863	980.5765773662868	1062.74505295555	1835.103975325111	286.0491196795879	1089.556227453924	1815.553566851982	308.4396396644005	1047.636838507938	1876.944934728976	358.396776070872	1105.945012989219	1853.429110985357	378.6516720762771	1061.989798963437	2116.240921288571	639.0008446072145	1154.355248460188	2070.62370774542	663.9070187962842	1102.313560916792	2154.001524406227	741.3158208269562	1165.447948458023	2112.554166271011	764.8725001745403	1114.698347388669	
2254	15.02	2346.274994705306	928.7781872621218	904.931346354883	2189.210188801628	269.7723786474815	971.6297915447628	2219.916661599986	277.5054386963702	928.7894093112241	2223.190782663455	303.1246142263286	971.548015377391	2293.123452372689	1010.499620190035	864.405104525308	2371.844953701899	162.8673430040581	990.3333117103598	2335.663978313316	174.7459489442873	886.6141037027886	2187.215729002618	986.4351264047255	961.8077912752246	2319.992224468147	344.0109004092899	911.7643145869341	2287.476266412785	367.6091915428262	950.3425098939452	2357.359350366301	415.3107644628351	902.5516883395458	2327.025357111223	438.5178550959545	940.3895375284153	2494.608200854135	686.9082823415736	872.731699776744	2442.718695641289	636.8563904741874	884.6838184129274	2415.391139695472	759.2778076140939	847.7060622610445	2366.69176918452	712.6209244678387	857.8738839478241	2343.218546393286	907.6536166289742	1128.918848282951	1843.714492352467	136.4146237016284	1053.482750414764	1706.976763804727	266.9456621487417	1016.768926406587	1727.30452465471	253.6837328500169	1061.432331967749	1752.952387834461	285.6457916431659	1029.156509097594	2326.175716449093	981.5996402052854	1155.309369059455	1833.169267228241	102.1846242885069	998.8282479939702	1787.766342702767	110.7099429754138	1097.542372386263	2188.929054461342	985.1153212172433	1064.174190453007	1820.950824849906	302.0378258253772	1091.575545918939	1802.324948880517	324.3995320352801	1049.239555490292	1864.731553844421	373.3503167102931	1107.405617609844	1842.128122600681	393.6218983956024	1063.04748573133	2112.379707879672	647.2245625374755	1154.544954496073	2067.663860763964	673.5058471572457	1102.32388542616	2153.216012459362	748.4717236145395	1165.626052580811	2112.812575650275	773.2114224437846	1114.502032286565	
